<svg xmlns="http://www.w3.org/2000/svg" viewBox="0 0 983.561 864.635"><title>svgBlack.svg</title><g id="Calque_2" data-name="Calque 2"><g id="Corps"><path d="M407.9,565.01a98.164,98.164,0,0,1-11.937-82.335,99.319,99.319,0,0,1-5.05-19.656,109.975,109.975,0,0,0,35.558,137.968A144.556,144.556,0,0,1,407.9,565.01Z"/><path d="M588.67,463.07a99.318,99.318,0,0,1-5.061,19.652,98.165,98.165,0,0,1-11.924,82.248A144.532,144.532,0,0,1,553.068,601a109.975,109.975,0,0,0,35.6-137.93Z"/><path d="M563.076,503.48a78.349,78.349,0,0,0-142.748,2.5l-1.364,7.157a117.308,117.308,0,0,0,60.491,99.88,16.612,16.612,0,0,0,6.708,2.064c2.013.163,4.047.251,6.1.251q2.308,0,4.584-.136a16.584,16.584,0,0,0,7.024-2.066,117.3,117.3,0,0,0,60.726-102.8h0A16,16,0,0,0,563.076,503.48Zm-41.548,40.73c-4.016,0-7.808-8.9-11.171-11.547a.16.16,0,0,0-.255.137c.05,1.158.089,4.555.118,7.158a7.781,7.781,0,0,0,1.946,5.114,28.24,28.24,0,0,1,7.13,18.89c0,15.239-11.175,33.248-25.682,33.248S466.76,579.2,466.76,563.962a28.608,28.608,0,0,1,2.5-11.743,16.54,16.54,0,0,0,1.53-7.179c-.007-.276-.01-.552-.01-.83,0-.664.024-8.209.061-9.9a.16.16,0,0,0-.242-.144c-2.671,1.757-5.554,10.043-8.562,10.043-13.809,0-25-14.887-25-33.25s5.417-24.25,25-33.25c9.243-4.248,18.689,7,22.785,19.47a5.809,5.809,0,0,0,6.195,4.044,14.967,14.967,0,0,1,2.015-.135h.046a6.261,6.261,0,0,0,5.685-3.916c4.077-12.327,13.5-23.618,22.769-19.463,15.137,6.788,25,14.886,25,33.25S535.337,544.21,521.528,544.21Z"/></g><g id="Calque_3" data-name="Calque 3"><path d="M509.78,313.582c-8.635,0-16.146-6.027-20-14.906-3.853,8.879-11.364,14.906-20,14.906h-.016a1.806,1.806,0,0,0-1.829,1.563,128.219,128.219,0,0,0-.905,15.312c0,30.307,10.186,54.875,22.75,54.875s22.75-24.568,22.75-54.875a128.467,128.467,0,0,0-.9-15.312,1.807,1.807,0,0,0-1.83-1.563Z"/><path d="M556.234,441.837c0-.707.023-1.409.05-2.11a.63.63,0,0,0-.159-.442,87.047,87.047,0,0,1-.676-114.807,70.572,70.572,0,0,0,17.483-45.311c.01-.674.015-1.334.015-2a131.048,131.048,0,0,0-5.883-39.156A79.018,79.018,0,0,0,538,197.993a117.448,117.448,0,0,1-44.849-66.806.642.642,0,0,0-1.25,0,116.782,116.782,0,0,1-17.758,39.154.615.615,0,0,0-.1.239q-.213,1.166-.419,2.352a.654.654,0,0,1-.459.516l-.944.276a2.163,2.163,0,0,0-1.115.763,117.988,117.988,0,0,1-28.322,26.479,77.6,77.6,0,0,0-33.172,47.949,132.922,132.922,0,0,0-3,28.254q0,5,.36,9.89a72.941,72.941,0,0,0,16.045,40.225,87.05,87.05,0,0,1-3.008,112,.625.625,0,0,0-.16.442c.028.7.05,1.4.05,2.11a57.414,57.414,0,0,1-6.56,26.735.638.638,0,0,0,.972.793A117.217,117.217,0,0,1,559.8,465.047a.638.638,0,0,0,.975-.756A57.451,57.451,0,0,1,556.234,441.837Zm-41.745-26.756c.025-.484.041-.972.041-1.463a27.444,27.444,0,0,0-1.112-7.756c-.541.023-1.086.038-1.638.038-8.635,0-16.146-2.757-20-6.818-3.853,4.061-11.365,6.818-20,6.818-.55,0-1.095-.015-1.636-.037a27.432,27.432,0,0,0-1.114,7.755c0,1.148-.468,3.018-.333,4.126l-.7-.129a6,6,0,0,1-.963-1.033c-9.223-13.8-16.994-34.909-20.622-60.858a44.644,44.644,0,0,0,15.2-25.883,44.556,44.556,0,0,1-17.012,8.8q-.457-6.124-.66-12.461A44.725,44.725,0,0,0,475.838,291.5,44.481,44.481,0,0,1,447.3,301.809c-1.049,0-2.086-.049-3.117-.12.477-9.293,1.384-18.237,2.673-26.708a44.563,44.563,0,0,0,12.077-22.994,44.754,44.754,0,0,1-8.777,5.7,167.486,167.486,0,0,1,6.934-22.8,51.108,51.108,0,0,0,12.888-6.6,32.18,32.18,0,0,0,5.3,14.886,21.052,21.052,0,0,1,3.049,7.269,19.86,19.86,0,0,0,3.891,8.162,21.889,21.889,0,0,1,3.519,5.564c1.255,3.111,3.825,5.246,6.8,5.246s5.544-2.135,6.8-5.246a21.912,21.912,0,0,1,3.519-5.565,19.886,19.886,0,0,0,3.919-8.284,20.65,20.65,0,0,1,3.055-7.2,31.972,31.972,0,0,0,5.156-13.879,51.285,51.285,0,0,0,6.735,3.742,164.008,164.008,0,0,1,7.687,24.695,44.807,44.807,0,0,1-8.77-5.694,44.569,44.569,0,0,0,12.084,23c1.288,8.467,2.189,17.414,2.666,26.7-1.031.071-2.067.12-3.116.12A44.484,44.484,0,0,1,503.722,291.5a44.727,44.727,0,0,0,31.906,34.686q-.2,6.331-.658,12.461a44.539,44.539,0,0,1-17.013-8.8,44.643,44.643,0,0,0,15.193,25.88C529.7,380.391,523.061,401.225,514.489,415.081Z"/><path d="M268.751,0a558.044,558.044,0,0,1,91.734,307.437,566.952,566.952,0,0,1-3.032,58.6,563.688,563.688,0,0,1,65,54.81,117.949,117.949,0,0,0-34.321,35.379,563.351,563.351,0,0,0-70.455-87.178,563.02,563.02,0,0,0,11.813-115A558.29,558.29,0,0,0,268.751,0Z"/><path d="M159.245,441.84a191.391,191.391,0,0,0,82.981,19.123h.456a325.974,325.974,0,0,0,45.657-3.211C304.385,455,322.789,452,321.122,427c17.42,12.361,40.044,31.048,56.394,44.73a117,117,0,0,0-6.759,37.147q-21.1-14.164-43.13-27.012a17.636,17.636,0,0,0-14.309-1.539c-30.452,9.834-55.363,18.507-96.521,15.614-.052,0-.013-.117-.056-.146-.021-.014-.049.006-.074,0C114.643,480.027,40.49,387.772,0,293.524A369.507,369.507,0,0,0,159.245,441.84Z"/><path d="M252.455,586.832c21.754-3.684,84.188,5.922,85.7,4.676,14.878-12.287,26.392-28.169,40.9-40.9a.475.475,0,0,1,.763.211,116.835,116.835,0,0,0,13.451,27.73.47.47,0,0,1,0,.524,483.2,483.2,0,0,0-41.983,75.551.718.718,0,0,1-1.324-.018,75.22,75.22,0,0,0-33.506-36.856c.355-.461-26.108-3.11-39.917-3.11q-2.99,0-5.969.038a64.229,64.229,0,0,0-26.518,6.154A485.965,485.965,0,0,0,53.635,781.018a.478.478,0,0,1-.814-.5C95.861,698.288,229.205,590.77,252.455,586.832Z"/><path d="M409.924,680.021c-4.213-13.551-8.511-13.068-18.082-13.494-5.711-.253-5.141.042-10.507-.051-.527-.009-1.061-.219-.062-.454,24.415-5.736,35.425-38.886,54.014-55.437a.388.388,0,0,1,.412-.065c7.947,3.46,16.886,15.968,25.583,17.6a.393.393,0,0,1,.25.615c-8.673,12.171-16.935,19.09-26.817,30.287a25.955,25.955,0,0,0-6.133,20.931q1.377,9.494,2.127,19.2.268,3.511.448,7.008a70.1,70.1,0,0,1-8.529,37.391A286.187,286.187,0,0,1,293.7,864.615a.194.194,0,0,1-.187-.339c59.095-38.6,126.987-124.6,119.3-166.089C410.222,684.176,410.341,681.365,409.924,680.021Z"/><path d="M714.81,0a558.053,558.053,0,0,0-91.735,307.437,566.951,566.951,0,0,0,3.033,58.6,563.688,563.688,0,0,0-64.995,54.81,117.961,117.961,0,0,1,34.321,35.379,563.351,563.351,0,0,1,70.455-87.178A562.876,562.876,0,0,1,714.81,0Z"/></g><g id="Calque_6" data-name="Calque 6"><path d="M824.316,441.84a191.4,191.4,0,0,1-82.982,19.123h-.455a325.988,325.988,0,0,1-45.658-3.211C679.175,455,660.772,452,662.439,427c-17.421,12.361-40.044,31.048-56.394,44.73a117,117,0,0,1,6.759,37.147q21.1-14.164,43.13-27.012a17.636,17.636,0,0,1,14.309-1.539c30.452,9.834,55.363,18.507,96.521,15.614.052,0,.013-.117.056-.146.021-.014.049.006.074,0,102.024-15.769,176.177-108.024,216.667-202.272A369.507,369.507,0,0,1,824.316,441.84Z"/><path d="M731.106,586.832c-21.755-3.684-84.188,5.922-85.7,4.676-14.879-12.287-26.392-28.169-40.9-40.9a.475.475,0,0,0-.763.211,116.874,116.874,0,0,1-13.451,27.73.468.468,0,0,0,0,.524,483.2,483.2,0,0,1,41.983,75.551.718.718,0,0,0,1.324-.018,75.22,75.22,0,0,1,33.506-36.856c-.355-.461,26.108-3.11,39.917-3.11q2.989,0,5.969.038a64.229,64.229,0,0,1,26.518,6.154A485.965,485.965,0,0,1,929.926,781.018a.478.478,0,0,0,.814-.5C887.7,698.288,754.356,590.77,731.106,586.832Z"/><path d="M573.637,680.021c4.212-13.551,8.51-13.068,18.082-13.494,5.711-.253,5.141.042,10.507-.051.527-.009,1.061-.219.062-.454-24.415-5.736-35.425-38.886-54.014-55.437a.388.388,0,0,0-.412-.065c-7.947,3.46-16.886,15.968-25.584,17.6a.393.393,0,0,0-.249.615c8.673,12.171,16.935,19.09,26.817,30.287a25.959,25.959,0,0,1,6.133,20.931q-1.377,9.494-2.127,19.2-.269,3.511-.448,7.008a70.1,70.1,0,0,0,8.528,37.391A286.194,286.194,0,0,0,689.858,864.615a.194.194,0,0,0,.187-.339c-59.1-38.6-126.987-124.6-119.3-166.089C573.339,684.176,573.22,681.365,573.637,680.021Z"/></g></g></svg>