<svg id="Layer_3" data-name="Layer 3" xmlns="http://www.w3.org/2000/svg" viewBox="0 0 600 692.82"><defs><style>.cls-1{fill:#665670;}.cls-2{fill:#5a4c63;}.cls-3{fill:#9f90a9;}.cls-4{fill:#93859c;}.cls-5{fill:#c8bfce;}.cls-6{fill:#aea3b5;}.cls-7{fill:#232621;}.cls-8{fill:none;stroke:#ccc;stroke-linecap:round;stroke-linejoin:round;stroke-width:15px;}</style></defs><title>cutie</title><path class="cls-1" d="M500,788.68h0A638.59,638.59,0,0,0,250,644.34h0a638.45,638.45,0,0,0,0-288.68h0A638.59,638.59,0,0,0,500,211.33V153.59a766.16,766.16,0,0,1-300,173.2h0a766.34,766.34,0,0,1,0,346.41h0A766.3,766.3,0,0,1,500,846.41h0V788.67Z" transform="translate(-200 -153.59)"/><path class="cls-2" d="M800,326.8h0A766.3,766.3,0,0,1,500,153.59h0v57.74h0A638.59,638.59,0,0,0,750,355.66h0a638.45,638.45,0,0,0,0,288.68h0A638.59,638.59,0,0,0,500,788.67v57.74a766.16,766.16,0,0,1,300-173.2h0a766.3,766.3,0,0,1,0-346.4Z" transform="translate(-200 -153.59)"/><path class="cls-3" d="M250,355.66h0a638.45,638.45,0,0,1,0,288.68h0A638.59,638.59,0,0,1,500,788.67h0V730.94h0A510.88,510.88,0,0,0,300,615.47h0a510.8,510.8,0,0,0,0-230.94h0A510.88,510.88,0,0,0,500,269.06V211.33A638.59,638.59,0,0,1,250,355.66Z" transform="translate(-200 -153.59)"/><path class="cls-4" d="M500,269.06h0A510.88,510.88,0,0,0,700,384.53h0a510.8,510.8,0,0,0,0,230.94h0A510.88,510.88,0,0,0,500,730.94v57.73A638.59,638.59,0,0,1,750,644.34h0a638.45,638.45,0,0,1,0-288.68h0A638.59,638.59,0,0,1,500,211.33h0v57.73Z" transform="translate(-200 -153.59)"/><path class="cls-5" d="M300,384.53h0a510.8,510.8,0,0,1,0,230.94h0A510.88,510.88,0,0,1,500,730.94h0V269.06A510.88,510.88,0,0,1,300,384.53Z" transform="translate(-200 -153.59)"/><path class="cls-6" d="M700,615.47h0a510.8,510.8,0,0,1,0-230.94h0A510.88,510.88,0,0,1,500,269.06h0V730.94A510.88,510.88,0,0,1,700,615.47Z" transform="translate(-200 -153.59)"/><circle cx="300" cy="476.52" r="30"/><path class="cls-7" d="M470,630.11a30,30,0,0,0,30,30v-60A30,30,0,0,0,470,630.11Z" transform="translate(-200 -153.59)"/><circle cx="300" cy="327.72" r="100"/><rect x="450" y="360.6" width="100" height="100" transform="translate(236.79 -386.88) rotate(45)"/><path class="cls-7" d="M429.29,410.6A100,100,0,0,0,500,581.31V339.89Z" transform="translate(-200 -153.59)"/><path class="cls-8" d="M475.2,407.12l-24.69,24.69A69.51,69.51,0,0,0,430,481.31" transform="translate(-200 -153.59)"/></svg>