<svg xmlns="http://www.w3.org/2000/svg" viewBox="0 0 983.56 864.63"><defs><style>.cls-1{opacity:0.3;}.cls-2{fill:#fff;}</style></defs><title>Aranea_t</title><g id="Corps" class="cls-1"><path class="cls-2" d="M418.12,600.18a98.1,98.1,0,0,1-11.93-82.34,99.07,99.07,0,0,1-5.05-19.65,109.95,109.95,0,0,0,35.55,138A145,145,0,0,1,418.12,600.18Z" transform="translate(-10.22 -35.17)"/><path class="cls-2" d="M598.89,498.24a99.78,99.78,0,0,1-5.06,19.65,98.12,98.12,0,0,1-11.93,82.25,144.78,144.78,0,0,1-18.61,36,110,110,0,0,0,35.6-137.93Z" transform="translate(-10.22 -35.17)"/><path class="cls-2" d="M573.3,538.65a78.35,78.35,0,0,0-142.75,2.5l-1.37,7.16a117.33,117.33,0,0,0,60.49,99.88,16.61,16.61,0,0,0,6.71,2.06q3,.25,6.1.25c1.54,0,3.07,0,4.59-.13a16.7,16.7,0,0,0,7-2.07,117.31,117.31,0,0,0,60.73-102.8h0A16,16,0,0,0,573.3,538.65Zm-41.55,40.73c-4,0-7.81-8.9-11.17-11.55a.16.16,0,0,0-.26.14c0,1.16.09,4.55.12,7.16a7.75,7.75,0,0,0,1.95,5.11,28.25,28.25,0,0,1,7.13,18.89c0,15.24-11.18,33.25-25.69,33.25S477,614.37,477,599.13a28.59,28.59,0,0,1,2.5-11.74,16.68,16.68,0,0,0,1.53-7.18c0-.28,0-.55,0-.83,0-.67,0-8.21.06-9.9a.17.17,0,0,0-.25-.15c-2.67,1.76-5.55,10-8.56,10-13.81,0-25-14.89-25-33.25s5.42-24.25,25-33.25c9.25-4.25,18.69,7,22.79,19.47a5.8,5.8,0,0,0,6.19,4,15.12,15.12,0,0,1,2-.13h0a6.28,6.28,0,0,0,5.69-3.92c4.08-12.33,13.5-23.62,22.77-19.46,15.13,6.79,25,14.88,25,33.25S545.56,579.38,531.75,579.38Z" transform="translate(-10.22 -35.17)"/></g><g id="Calque_3" data-name="Calque 3" class="cls-1"><path class="cls-2" d="M520,348.75c-8.64,0-16.15-6-20-14.91-3.85,8.88-11.36,14.91-20,14.91h0a1.81,1.81,0,0,0-1.83,1.56,129.61,129.61,0,0,0-.9,15.32c0,30.3,10.19,54.87,22.75,54.87s22.75-24.57,22.75-54.87a129.61,129.61,0,0,0-.9-15.32,1.81,1.81,0,0,0-1.83-1.56Z" transform="translate(-10.22 -35.17)"/><path class="cls-2" d="M566.45,477c0-.7,0-1.4,0-2.11a.6.6,0,0,0-.16-.44,87,87,0,0,1-.67-114.8,70.58,70.58,0,0,0,17.48-45.32c0-.67,0-1.33,0-2a130.89,130.89,0,0,0-5.89-39.16,79,79,0,0,0-29.06-40,117.42,117.42,0,0,1-44.84-66.8.65.65,0,0,0-1.26,0,116.89,116.89,0,0,1-17.75,39.15.51.51,0,0,0-.1.24c-.15.78-.29,1.56-.42,2.35a.65.65,0,0,1-.46.52l-.95.27a2.16,2.16,0,0,0-1.11.77A117.84,117.84,0,0,1,453,236.13a77.57,77.57,0,0,0-33.17,47.95,132.8,132.8,0,0,0-3,28.26c0,3.33.13,6.63.36,9.89a73,73,0,0,0,16.05,40.22,87,87,0,0,1-3,112,.6.6,0,0,0-.16.44c0,.71.05,1.41.05,2.11a57.42,57.42,0,0,1-6.56,26.74.64.64,0,0,0,1,.79A117.22,117.22,0,0,1,570,500.21a.64.64,0,0,0,1-.75A57.32,57.32,0,0,1,566.45,477Zm-41.74-26.75c0-.49,0-1,0-1.46a27.41,27.41,0,0,0-1.11-7.76c-.54,0-1.09,0-1.64,0-8.64,0-16.15-2.76-20-6.82-3.85,4.06-11.36,6.82-20,6.82-.55,0-1.1,0-1.64,0a27.41,27.41,0,0,0-1.11,7.76c0,1.14-.47,3-.33,4.12l-.71-.13a5.61,5.61,0,0,1-1-1c-9.22-13.8-17-34.91-20.62-60.86A44.65,44.65,0,0,0,471.82,365a44.5,44.5,0,0,1-17,8.8c-.3-4.08-.53-8.24-.66-12.46a44.72,44.72,0,0,0,31.91-34.68A44.52,44.52,0,0,1,457.52,337c-1,0-2.09-.05-3.12-.12.48-9.3,1.38-18.24,2.67-26.71a44.57,44.57,0,0,0,12.08-23,44.81,44.81,0,0,1-8.78,5.7,167.62,167.62,0,0,1,6.94-22.8,50.75,50.75,0,0,0,12.88-6.6,32.27,32.27,0,0,0,5.3,14.89,21,21,0,0,1,3.05,7.27,20,20,0,0,0,3.89,8.16,21.78,21.78,0,0,1,3.52,5.56c1.26,3.12,3.83,5.25,6.8,5.25s5.54-2.13,6.8-5.25a21.78,21.78,0,0,1,3.52-5.56,19.9,19.9,0,0,0,3.92-8.28,20.5,20.5,0,0,1,3-7.2,32.06,32.06,0,0,0,5.16-13.88,49.57,49.57,0,0,0,6.73,3.74,163.3,163.3,0,0,1,7.69,24.7,44.74,44.74,0,0,1-8.77-5.7,44.57,44.57,0,0,0,12.08,23c1.29,8.47,2.19,17.42,2.67,26.71-1,.07-2.07.12-3.12.12a44.52,44.52,0,0,1-28.54-10.31,44.72,44.72,0,0,0,31.91,34.68c-.13,4.22-.36,8.38-.66,12.46a44.5,44.5,0,0,1-17-8.8,44.6,44.6,0,0,0,15.19,25.88C539.92,415.56,533.28,436.39,524.71,450.25Z" transform="translate(-10.22 -35.17)"/><path class="cls-2" d="M279,35.17A558,558,0,0,1,370.7,342.61a567,567,0,0,1-3,58.59,563,563,0,0,1,65,54.82,117.77,117.77,0,0,0-34.32,35.37,563.48,563.48,0,0,0-70.46-87.17,563,563,0,0,0,11.81-115A558.31,558.31,0,0,0,279,35.17Z" transform="translate(-10.22 -35.17)"/><path class="cls-2" d="M169.46,477a191.51,191.51,0,0,0,83,19.12h.45a325.9,325.9,0,0,0,45.66-3.21c16-2.75,34.45-5.75,32.78-30.75,17.42,12.36,40.05,31,56.4,44.73A116.55,116.55,0,0,0,381,544q-21.11-14.16-43.13-27a17.64,17.64,0,0,0-14.31-1.54C293.09,525.33,268.17,534,227,531.11c-.06,0,0-.12-.06-.15h-.07c-102-15.77-176.18-108-216.67-202.27A369.46,369.46,0,0,0,169.46,477Z" transform="translate(-10.22 -35.17)"/><path class="cls-2" d="M262.67,622c21.76-3.68,84.19,5.92,85.7,4.68,14.88-12.29,26.39-28.17,40.9-40.9a.47.47,0,0,1,.76.21,116.69,116.69,0,0,0,13.46,27.73.47.47,0,0,1,0,.52,483.49,483.49,0,0,0-42,75.55.71.71,0,0,1-1.32,0,75.26,75.26,0,0,0-33.51-36.85c.35-.46-26.11-3.11-39.92-3.11q-3,0-6,0A64.06,64.06,0,0,0,254.27,656,485.93,485.93,0,0,0,63.85,816.19a.48.48,0,0,1-.81-.5C106.08,733.46,239.42,625.94,262.67,622Z" transform="translate(-10.22 -35.17)"/><path class="cls-2" d="M420.14,715.19c-4.21-13.55-8.51-13.07-18.08-13.49-5.71-.26-5.14,0-10.51-.06-.52,0-1.06-.22-.06-.45,24.42-5.74,35.43-38.89,54-55.44a.38.38,0,0,1,.41-.06c7.95,3.46,16.88,16,25.58,17.6a.39.39,0,0,1,.25.61c-8.67,12.17-16.93,19.09-26.82,30.29a26,26,0,0,0-6.13,20.93q1.38,9.5,2.13,19.2c.18,2.35.33,4.68.45,7a70.06,70.06,0,0,1-8.53,37.39A286.2,286.2,0,0,1,303.92,899.78a.19.19,0,0,1-.18-.34c59.09-38.6,127-124.59,119.3-166.09C420.44,719.34,420.56,716.53,420.14,715.19Z" transform="translate(-10.22 -35.17)"/><path class="cls-2" d="M725,35.17A558,558,0,0,0,633.3,342.61a567,567,0,0,0,3,58.59,563,563,0,0,0-65,54.82,117.77,117.77,0,0,1,34.32,35.37,563.48,563.48,0,0,1,70.46-87.17A563,563,0,0,1,725,35.17Z" transform="translate(-10.22 -35.17)"/></g><g id="Calque_6" data-name="Calque 6" class="cls-1"><path class="cls-2" d="M834.54,477a191.51,191.51,0,0,1-83,19.12h-.45a325.9,325.9,0,0,1-45.66-3.21c-16-2.75-34.45-5.75-32.78-30.75-17.42,12.36-40,31-56.4,44.73A116.55,116.55,0,0,1,623,544q21.11-14.16,43.13-27a17.64,17.64,0,0,1,14.31-1.54c30.45,9.84,55.37,18.51,96.52,15.62.06,0,0-.12.06-.15h.07c102-15.77,176.18-108,216.67-202.27A369.46,369.46,0,0,1,834.54,477Z" transform="translate(-10.22 -35.17)"/><path class="cls-2" d="M741.33,622c-21.76-3.68-84.19,5.92-85.7,4.68-14.88-12.29-26.39-28.17-40.9-40.9a.47.47,0,0,0-.76.21,116.69,116.69,0,0,1-13.46,27.73.47.47,0,0,0,0,.52,483.49,483.49,0,0,1,42,75.55.71.71,0,0,0,1.32,0,75.26,75.26,0,0,1,33.51-36.85c-.35-.46,26.11-3.11,39.92-3.11q3,0,6,0A64.06,64.06,0,0,1,749.73,656,485.93,485.93,0,0,1,940.15,816.19a.48.48,0,0,0,.81-.5C897.92,733.46,764.58,625.94,741.33,622Z" transform="translate(-10.22 -35.17)"/><path class="cls-2" d="M583.86,715.19c4.21-13.55,8.51-13.07,18.08-13.49,5.71-.26,5.14,0,10.51-.06.52,0,1.06-.22.06-.45-24.42-5.74-35.43-38.89-54-55.44a.38.38,0,0,0-.41-.06c-8,3.46-16.88,16-25.58,17.6a.39.39,0,0,0-.25.61c8.67,12.17,16.93,19.09,26.82,30.29a26,26,0,0,1,6.13,20.93q-1.38,9.5-2.13,19.2c-.18,2.35-.33,4.68-.45,7a70.06,70.06,0,0,0,8.53,37.39A286.2,286.2,0,0,0,700.08,899.78a.19.19,0,0,0,.18-.34c-59.09-38.6-127-124.59-119.3-166.09C583.56,719.34,583.44,716.53,583.86,715.19Z" transform="translate(-10.22 -35.17)"/></g></svg>